<svg aria-hidden="true" style="position: absolute; width: 0; height: 0; overflow: hidden;" version="1.1" xmlns="http://www.w3.org/2000/svg" xmlns:xlink="http://www.w3.org/1999/xlink">
<defs>

<symbol id="icon-facebook" viewBox="0 0 16 32">
<path d="M12.979 5.272h2.899v-5.049c-0.5-0.069-2.22-0.224-4.223-0.224-4.179 0-7.042 2.629-7.042 7.46v4.447h-4.612v5.644h4.612v14.201h5.654v-14.2h4.425l0.703-5.644h-5.129v-3.888c0.001-1.631 0.441-2.748 2.713-2.748z"></path>
</symbol>

<symbol id="icon-instagram" viewBox="0 0 33 32">
<path d="M11.399 0h12c5.522 0 10 4.478 10 10v12c0 5.522-4.478 10-10 10h-12c-5.522 0-10-4.478-10-10v-12c0-5.522 4.478-10 10-10zM23.399 29c3.86 0 7-3.14 7-7v-12c0-3.86-3.14-7-7-7h-12c-3.86 0-7 3.14-7 7v12c0 3.86 3.14 7 7 7h12z"></path>
<path d="M9.399 16c0-4.418 3.582-8 8-8s8 3.582 8 8c0 4.418-3.582 8-8 8s-8-3.582-8-8zM12.399 16c0 2.756 2.244 5 5 5s5-2.244 5-5c0-2.758-2.244-5-5-5s-5 2.242-5 5z"></path>
<path d="M27.065 7.4c0 0.589-0.477 1.066-1.066 1.066s-1.066-0.477-1.066-1.066c0-0.589 0.477-1.066 1.066-1.066s1.066 0.477 1.066 1.066z"></path>
</symbol>

<symbol id="icon-twitter" viewBox="0 0 41 32">
<path d="M40.821 3.762c-1.455 0.638-3.004 1.061-4.62 1.266 1.662-0.992 2.931-2.552 3.527-4.432-1.55 0.924-3.261 1.577-5.084 1.941-1.471-1.567-3.569-2.537-5.857-2.537-4.439 0-8.013 3.603-8.013 8.020 0 0.636 0.054 1.247 0.186 1.828-6.666-0.325-12.564-3.52-16.527-8.387-0.692 1.2-1.098 2.574-1.098 4.053 0 2.777 1.43 5.238 3.562 6.664-1.288-0.024-2.552-0.398-3.623-0.988 0 0.024 0 0.056 0 0.088 0 3.896 2.779 7.133 6.424 7.879-0.653 0.178-1.364 0.264-2.102 0.264-0.513 0-1.032-0.029-1.518-0.137 1.039 3.175 3.987 5.51 7.492 5.586-2.728 2.134-6.192 3.42-9.942 3.42-0.658 0-1.288-0.029-1.919-0.11 3.552 2.291 7.761 3.598 12.3 3.598 14.755 0 22.821-12.222 22.821-22.816 0-0.354-0.012-0.697-0.029-1.036 1.591-1.129 2.928-2.54 4.019-4.163z"></path>
</symbol>

</defs>
</svg>
